<svg xmlns="http://www.w3.org/2000/svg" viewBox="0 0 256 256" role="img" aria-labelledby="title desc">
  <title>GitHub mark</title>
  <desc>Black GitHub symbol centered on a white background.</desc>
  <rect width="256" height="256" fill="#ffffff" />
  <path
    fill="#111111"
    d="M128 32C75 32 32 75 32 128c0 42.4 27.4 78.4 65.5 91.1 4.8.9 6.5-2.1 6.5-4.6 0-2.3-.1-9.8-.1-17.7-24 4.4-30.2-5.9-32.1-11.4-1.1-2.8-5.7-11.4-9.7-13.7-3.3-1.8-8-6.3-.1-6.4 7.4-.1 12.6 6.8 14.3 9.6 8.5 14.3 22.1 10.3 27.5 7.8.9-6.2 3.3-10.3 6-12.7-21.3-2.4-43.6-10.6-43.6-47.1 0-10.4 3.7-18.9 9.8-25.6-.9-2.4-4.2-12.3 1-25.5 0 0 8-2.6 26.2 9.8 7.6-2.1 15.7-3.1 23.8-3.1 8.1 0 16.2 1 23.8 3.1 18.2-12.5 26.2-9.8 26.2-9.8 5.2 13.2 1.9 23.1 1 25.5 6.1 6.7 9.8 15.2 9.8 25.6 0 36.6-22.4 44.7-43.7 47.1 3.4 2.9 6.4 8.4 6.4 17.1 0 12.4-.1 22.4-.1 25.5 0 2.5 1.7 5.5 6.5 4.6C196.6 206.4 224 170.4 224 128c0-53-43-96-96-96Z"
  />
</svg>
